Coordinates
version=1
nRows=20
nColumns=30
inDegrees=yes

Units are S.I. units (second, meters, Newtons, ...)
Angles are in degrees.

endheader
time	floatyaw	floatroll	floatpitch	floatx	floaty	floatz	pro_sup_l	deviation_l	flexion_l	cmc_flexion_l	cmc_abduction_l	mp_flexion_l	ip_flexion_l	2mcp_flexion_l	2mcp_abduction_l	2pm_flexion_l	2md_flexion_l	3mcp_flexion_l	3mcp_abduction_l	3pm_flexion_l	3md_flexion_l	4mcp_flexion_l	4mcp_abduction_l	4pm_flexion_l	4md_flexion_l	5mcp_flexion_l	5mcp_abduction_l	5pm_flexion_l	5md_flexion_l
-1.495000	-160.147433	-5.066637	-73.570646	0.082969	-0.182539	-0.016169	101.319425	2.605768	-0.997853	15.648616	4.286630	-26.130263	-42.283295	30.033047	6.553819	42.557448	28.968088	24.747273	4.054313	43.231145	28.536704	13.443541	-4.442936	51.995652	35.666616	0.815076	-7.563771	62.448508	42.081009
-1.485000	-160.147433	-5.066637	-73.570646	0.082923	-0.182504	-0.016259	101.298136	2.629528	-0.990371	15.597158	4.308639	-26.111954	-42.263161	30.054145	6.561215	42.594774	28.993658	24.752989	4.047048	43.277758	28.563096	13.461951	-4.433893	51.986084	35.663074	0.830342	-7.569842	62.426621	42.068988
-1.475000	-160.147433	-5.066637	-73.570646	0.082869	-0.182462	-0.016355	101.269263	2.654145	-0.981587	15.532943	4.332106	-26.078966	-42.218305	30.074885	6.565304	42.627582	29.016490	24.756773	4.042381	43.314134	28.582483	13.469838	-4.424743	51.979185	35.662856	0.843826	-7.574088	62.404291	42.061751
-1.465000	-160.147433	-5.066637	-73.570646	0.082810	-0.182413	-0.016454	101.236473	2.679206	-0.972290	15.463230	4.356217	-26.040593	-42.159690	30.094883	6.565408	42.646935	29.030421	24.757550	4.040778	43.335375	28.592062	13.466178	-4.417423	51.976049	35.665949	0.852337	-7.575413	62.386571	42.060522
-1.455000	-160.147433	-5.066637	-73.570646	0.082746	-0.182356	-0.016553	101.203898	2.705929	-0.963736	15.395734	4.382480	-26.006400	-42.100805	30.112032	6.561803	42.650720	29.033623	24.755154	4.042112	43.341751	28.592158	13.454509	-4.412868	51.975730	35.670667	0.855917	-7.574485	62.376369	42.064184
-1.445000	-160.147433	-5.066637	-73.570646	0.082675	-0.182289	-0.016652	101.174781	2.737071	-0.956996	15.336946	4.413137	-25.982265	-42.052112	30.122673	6.555271	42.644421	29.029334	24.750516	4.045668	43.336853	28.585291	13.440914	-4.410833	51.976421	35.674800	0.856917	-7.572989	62.373881	42.070106
-1.435000	-160.147433	-5.066637	-73.570646	0.082591	-0.182207	-0.016756	101.150186	2.775882	-0.952624	15.291265	4.448395	-25.968836	-42.018260	30.123239	6.546655	42.637673	29.023695	24.745272	4.050152	43.325630	28.574944	13.431140	-4.410151	51.976736	35.676827	0.858308	-7.572473	62.376757	42.075131
-1.425000	-160.147433	-5.066637	-73.570646	0.082486	-0.182104	-0.016872	101.128582	2.824284	-0.950711	15.260174	4.484587	-25.963026	-41.998753	30.112512	6.536945	42.638532	29.021996	24.741135	4.053872	43.313274	28.564650	13.428627	-4.409298	51.976056	35.676472	0.862444	-7.573504	62.381011	42.076552
-1.415000	-160.147433	-5.066637	-73.570646	0.082356	-0.181981	-0.017007	101.106798	2.881263	-0.951102	15.241411	4.514945	-25.961323	-41.990740	30.093123	6.527855	42.648553	29.025516	24.739423	4.055195	43.304640	28.557448	13.434525	-4.407026	51.973557	35.674310	0.870900	-7.575640	62.382513	42.072988
-1.405000	-160.147433	-5.066637	-73.570646	0.082202	-0.181839	-0.017160	101.081869	2.942678	-0.953542	15.229130	4.533034	-25.962764	-41.991864	30.071079	6.522189	42.661318	29.030710	24.740792	4.053158	43.303369	28.555431	13.449086	-4.402850	51.966792	35.670853	0.884982	-7.578214	62.378607	42.064951
-1.395000	-160.147433	-5.066637	-73.570646	0.082025	-0.181685	-0.017328	101.052577	3.002831	-0.957738	15.215871	4.536990	-25.969731	-42.001501	30.053206	6.523251	42.665290	29.031200	24.745015	4.047992	43.310532	28.559226	13.472654	-4.397165	51.951556	35.666017	0.905807	-7.581385	62.369163	42.054816
-1.385000	-160.147433	-5.066637	-73.570646	0.081832	-0.181524	-0.017504	101.019692	3.056847	-0.963481	15.195934	4.531787	-25.985913	-42.019721	30.043963	6.533246	42.649775	29.021532	24.750850	4.041243	43.323685	28.567692	13.505034	-4.390967	51.924119	35.659584	0.933394	-7.586718	62.356758	42.046191
-1.375000	-160.147433	-5.066637	-73.570646	0.081625	-0.181363	-0.017680	100.985037	3.102290	-0.970967	15.168491	4.527754	-26.012222	-42.044462	30.043720	6.551659	42.611244	29.000744	24.756314	4.035376	43.337727	28.578383	13.543941	-4.385346	51.884899	35.652353	0.965487	-7.596767	62.346182	42.043007
-1.365000	-160.147433	-5.066637	-73.570646	0.081406	-0.181204	-0.017853	100.950297	3.139185	-0.981216	15.138586	4.535931	-26.043138	-42.068731	30.049593	6.574825	42.556706	28.973775	24.759585	4.032905	43.347761	28.588883	13.584516	-4.381102	51.840849	35.646942	0.997568	-7.613772	62.343463	42.048607
-1.355000	-160.147433	-5.066637	-73.570646	0.081175	-0.181053	-0.018020	100.916492	3.168952	-0.996187	15.115206	4.562897	-26.066647	-42.080598	30.057944	6.597241	42.501807	28.949701	24.760199	4.035375	43.352198	28.598216	13.621042	-4.378671	51.804085	35.647305	1.024719	-7.638110	62.354235	42.064845
-1.345000	-160.147433	-5.066637	-73.570646	0.080930	-0.180913	-0.018183	100.884242	3.193450	-1.018139	15.107145	4.608091	-26.069356	-42.067668	30.066545	6.613866	42.464115	28.937579	24.759607	4.042637	43.353676	28.607255	13.649767	-4.378294	51.786707	35.656930	1.044255	-7.667303	62.381365	42.091148
-1.335000	-160.147433	-5.066637	-73.570646	0.080671	-0.180787	-0.018341	100.854264	3.214727	-1.048214	15.118456	4.664952	-26.044463	-42.024264	30.074943	6.622044	42.455181	28.942198	24.760337	4.052851	43.356958	28.617750	13.670483	-4.380147	51.794708	35.676755	1.057005	-7.696182	62.422615	42.123966
-1.325000	-160.147433	-5.066637	-73.570646	0.080400	-0.180673	-0.018495	100.827510	3.235067	-1.084979	15.145695	4.724768	-25.997110	-41.956314	30.083367	6.622112	42.475908	28.962211	24.764191	4.063268	43.365458	28.630797	13.685581	-4.384269	51.824875	35.704205	1.066202	-7.718342	62.469961	42.157289
-1.315000	-160.147433	-5.066637	-73.570646	0.080124	-0.180572	-0.018644	100.804806	3.256602	-1.124139	15.178575	4.780755	-25.942665	-41.879588	30.091652	6.616719	42.517540	28.991517	24.770849	4.071393	43.379155	28.646024	13.697601	-4.390337	51.866712	35.734128	1.075095	-7.728570	62.511794	42.184589
-1.305000	-160.147433	-5.066637	-73.570646	0.079851	-0.180480	-0.018784	100.786312	3.280400	-1.159936	15.204201	4.830225	-25.898713	-41.811990	30.099056	6.609500	42.566980	29.022724	24.777802	4.075885	43.395462	28.662118	13.707442	-4.397541	51.908055	35.761154	1.085545	-7.725263	62.537425	42.201371
